<svg viewBox="0 0 24 24" fill="none" xmlns="http://www.w3.org/2000/svg"><path d="M0 0h24v24H0V0z" fill="#fff"></path> <path d="M0 12v12h24V0H0v12zm19.34-.956c.61.152 1.075.423 1.502.865.221.236.549.667.575.77.008.03-1.036.73-1.669 1.123-.022.015-.114-.083-.217-.236-.309-.45-.632-.644-1.128-.678-.727-.05-1.2.332-1.192.967a.88.88 0 00.103.45c.16.332.457.53 1.39.934 1.718.739 2.453 1.226 2.91 1.92.51.773.625 2.008.278 2.926-.38.998-1.325 1.676-2.655 1.9-.411.073-1.386.062-1.828-.018-.964-.171-1.878-.647-2.442-1.272-.221-.244-.651-.88-.625-.926.011-.015.11-.076.221-.141l.892-.514.69-.4.145.213c.201.31.643.732.91.873.766.404 1.817.346 2.335-.118.221-.202.312-.412.312-.72 0-.279-.033-.4-.178-.61-.187-.266-.568-.49-1.65-.96-1.239-.533-1.772-.864-2.26-1.39a3.167 3.167 0 01-.659-1.2c-.091-.34-.114-1.189-.042-1.531.255-1.2 1.158-2.031 2.462-2.279.422-.08 1.406-.05 1.82.054v-.002zm-5.633 1.001l.007.983H10.59v8.876H8.381v-8.876H5.257v-.964l.027-.99c.01-.015 1.912-.022 4.217-.019l4.194.012.012.978z" fill="#007ACC"></path></svg>
